<svg xmlns="http://www.w3.org/2000/svg" xmlns:xlink="http://www.w3.org/1999/xlink" version="1.1" x="0px" y="0px" viewBox="0 0 24 30" style="enable-background:new 0 0 24 24;" xml:space="preserve"><g><path d="M23.5,7.5h-23C0.224,7.5,0,7.276,0,7s0.224-0.5,0.5-0.5h23C23.775,6.5,24,6.724,24,7S23.775,7.5,23.5,7.5z"/><path d="M23.5,12.5h-23C0.224,12.5,0,12.276,0,12s0.224-0.5,0.5-0.5h23c0.275,0,0.5,0.224,0.5,0.5S23.775,12.5,23.5,12.5z"/><path d="M23.5,17.5h-23C0.224,17.5,0,17.275,0,17s0.224-0.5,0.5-0.5h23c0.275,0,0.5,0.225,0.5,0.5S23.775,17.5,23.5,17.5z"/></g><text x="0" y="39" fill="#000000" font-size="5px" font-weight="bold" font-family="'Helvetica Neue', Helvetica, Arial-Unicode, Arial, Sans-serif">Created by Norbert Kucsera</text><text x="0" y="44" fill="#000000" font-size="5px" font-weight="bold" font-family="'Helvetica Neue', Helvetica, Arial-Unicode, Arial, Sans-serif">from the Noun Project</text></svg>